<?xml version="1.0" encoding="UTF-8" standalone="no"?>
<svg
   xmlns:osb="http://www.openswatchbook.org/uri/2009/osb"
   xmlns:dc="http://purl.org/dc/elements/1.1/"
   xmlns:cc="http://creativecommons.org/ns#"
   xmlns:rdf="http://www.w3.org/1999/02/22-rdf-syntax-ns#"
   xmlns:svg="http://www.w3.org/2000/svg"
   xmlns="http://www.w3.org/2000/svg"
   xmlns:xlink="http://www.w3.org/1999/xlink"
   xmlns:sodipodi="http://sodipodi.sourceforge.net/DTD/sodipodi-0.dtd"
   xmlns:inkscape="http://www.inkscape.org/namespaces/inkscape"
   version="1.1"
   id="Capa_1"
   x="0px"
   y="0px"
   viewBox="0 0 59.982 59.982"
   style="enable-background:new 0 0 59.982 59.982;"
   xml:space="preserve"
   sodipodi:docname="icon.svg"
   inkscape:version="1.0.1 (3bc2e813f5, 2020-09-07)"
   inkscape:export-filename="icon.png"
   inkscape:export-xdpi="204.86147"
   inkscape:export-ydpi="204.86147"><metadata
     id="metadata57"><rdf:RDF><cc:Work
         rdf:about=""><dc:format>image/svg+xml</dc:format><dc:type
           rdf:resource="http://purl.org/dc/dcmitype/StillImage" /><dc:title /></cc:Work></rdf:RDF></metadata><defs
     id="defs55"><pattern
       inkscape:collect="always"
       xlink:href="#pattern1081"
       id="pattern1805"
       patternTransform="matrix(0.83540456,0,0,1.0610057,-1.660571,8.4021636)" /><linearGradient
       id="linearGradient856"
       osb:paint="solid"><stop
         style="stop-color:#d65050;stop-opacity:1;"
         offset="0"
         id="stop854" /></linearGradient><linearGradient
       id="linearGradient1224"
       osb:paint="solid"><stop
         style="stop-color:#ffffff;stop-opacity:1;"
         offset="0"
         id="stop1222" /></linearGradient><linearGradient
       id="linearGradient1197"
       osb:paint="solid"><stop
         style="stop-color:#00ac20;stop-opacity:1;"
         offset="0"
         id="stop1195" /></linearGradient><linearGradient
       inkscape:collect="always"
       xlink:href="#linearGradient1224"
       id="linearGradient877"
       gradientUnits="userSpaceOnUse"
       gradientTransform="matrix(1.4806317,0,0,1.4806317,81.893775,59.084692)"
       x1="-46.789307"
       y1="-13.693111"
       x2="-24.617432"
       y2="-13.693111" /><pattern
       patternUnits="userSpaceOnUse"
       width="40.392463"
       height="38.59914"
       patternTransform="translate(-2.5591658,9.6786121)"
       id="pattern1081"><text
   id="text1220"
   y="38.59914"
   x="1.4232721"
   style="font-style:normal;font-weight:normal;font-size:72.8715px;line-height:125%;font-family:sans-serif;letter-spacing:0px;word-spacing:0px;fill:#ffffff;fill-opacity:1;stroke:#d59600;stroke-width:0;stroke-linecap:butt;stroke-linejoin:miter;stroke-miterlimit:4;stroke-dasharray:none;stroke-opacity:1"
   xml:space="preserve"><tspan
     style="font-style:italic;font-variant:normal;font-weight:normal;font-stretch:normal;font-size:58.2972px;font-family:'Times New Roman';-inkscape-font-specification:'Times New Roman, Italic';fill:#ffffff;fill-opacity:1;stroke:#d59600;stroke-width:0;stroke-miterlimit:4;stroke-dasharray:none;stroke-opacity:1"
     y="38.59914"
     x="1.4232721"
     id="tspan1218"
     sodipodi:role="line">F</tspan></text>
</pattern></defs><sodipodi:namedview
     pagecolor="#ffffff"
     bordercolor="#666666"
     borderopacity="1"
     objecttolerance="10"
     gridtolerance="10"
     guidetolerance="10"
     inkscape:pageopacity="0"
     inkscape:pageshadow="2"
     inkscape:window-width="1366"
     inkscape:window-height="683"
     id="namedview53"
     showgrid="false"
     inkscape:zoom="7.8690276"
     inkscape:cx="18.404307"
     inkscape:cy="31.051853"
     inkscape:window-x="0"
     inkscape:window-y="24"
     inkscape:window-maximized="1"
     inkscape:current-layer="layer1"
     inkscape:document-rotation="0" /><g
     inkscape:groupmode="layer"
     id="layer3"
     inkscape:label="backg"
     style="display:inline"><path
       style="fill:#2d79ff;fill-opacity:1;stroke:#d59600;stroke-width:0;stroke-linecap:square;stroke-linejoin:bevel;stroke-miterlimit:4;stroke-dasharray:none;stroke-dashoffset:0;stroke-opacity:1;paint-order:normal"
       d="M 27.903633,59.284327 C 25.453213,58.570343 22.977096,57.592546 20.392328,56.318175 8.9335991,50.668682 1.6063946,40.997867 0.50889722,30.075025 0.39540333,28.945478 0.30254471,23.534493 0.30254471,18.050621 V 8.0799384 L 0.75526619,7.9603607 C 1.0042629,7.8945943 1.8870698,7.838705 2.7170591,7.8361659 5.6618159,7.8271163 11.200862,7.0765217 15.091445,6.1592265 c 5.454672,-1.2860651 9.221162,-2.837573 14.590453,-6.01015773 0.482411,-0.28504484 0.574191,-0.25524327 1.985903,0.64484395 5.907708,3.76666808 15.665603,6.53790058 24.470391,6.94956668 1.327982,0.062092 2.714652,0.1579144 3.081486,0.2129429 l 0.666974,0.1000515 -0.07915,11.5403512 c -0.0744,10.846327 -0.104559,11.651053 -0.501675,13.38106 -2.3504,10.239506 -9.170677,18.32477 -19.849042,23.530528 -2.7379,1.334745 -8.314497,3.293603 -9.321993,3.274485 -0.30594,-0.0058 -1.309963,-0.230161 -2.231156,-0.498574 z"
       id="path1063"
       inkscape:connector-curvature="0" /></g><g
     inkscape:groupmode="layer"
     id="layer2"
     inkscape:label="F"
     style="display:inline"><path
       d="m 6.5300017,25.873263 v 11.73917 H 3.3224658 V 9.1974223 h 6.1391544 q 4.5871218,0 6.7772138,2.0018787 2.190091,2.001878 2.190091,6.063942 0,1.690906 -0.43112,2.954228 -0.413876,1.263321 -1.120913,2.176799 -0.689793,0.894043 -1.586524,1.49655 -0.89673,0.602508 -1.845195,0.991222 l 6.863437,12.730391 h -3.776614 l -6.052931,-11.73917 z m 0,-3.070843 h 2.8281499 q 1.5520334,0 2.6384574,-0.330407 1.086423,-0.349842 1.776215,-1.010657 0.707038,-0.68025 1.017445,-1.67147 0.327651,-1.010657 0.327651,-2.351722 0,-1.399371 -0.362141,-2.371157 -0.344896,-0.971786 -1.069178,-1.593728 -0.707038,-0.621943 -1.810706,-0.894043 -1.086424,-0.291535 -2.5867227,-0.291535 H 6.5300017 Z"
       style="font-style:normal;font-variant:normal;font-weight:normal;font-stretch:normal;font-size:37.4938px;line-height:125%;font-family:'Droid Sans';-inkscape-font-specification:'Droid Sans, Normal';font-variant-ligatures:normal;font-variant-caps:normal;font-variant-numeric:normal;font-variant-east-asian:normal;letter-spacing:0px;word-spacing:0px;fill:#ffffff;fill-opacity:1;stroke:none;stroke-width:0.937345px;stroke-linecap:butt;stroke-linejoin:miter;stroke-opacity:1"
       id="path874" /><path
       d="M 31.1556,37.612433 H 27.93082 V 12.384879 H 20.722486 V 9.1974223 H 38.346689 V 12.384879 H 31.1556 Z"
       style="font-style:normal;font-variant:normal;font-weight:normal;font-stretch:normal;font-size:37.4938px;line-height:125%;font-family:'Droid Sans';-inkscape-font-specification:'Droid Sans, Normal';font-variant-ligatures:normal;font-variant-caps:normal;font-variant-numeric:normal;font-variant-east-asian:normal;letter-spacing:0px;word-spacing:0px;fill:#ffffff;fill-opacity:1;stroke:none;stroke-width:0.937345px;stroke-linecap:butt;stroke-linejoin:miter;stroke-opacity:1"
       id="path876" /><path
       d="m 51.332034,11.97673 q -1.845196,0 -3.345495,0.796863 -1.500298,0.777429 -2.569478,2.254543 -1.051933,1.477114 -1.638257,3.595606 -0.569079,2.118493 -0.569079,4.781185 0,2.740436 0.5001,4.878364 0.517345,2.118493 1.534788,3.576172 1.017445,1.457678 2.534989,2.215671 1.517543,0.757992 3.552432,0.757992 1.534788,0 2.914374,-0.330407 1.379585,-0.349843 2.724681,-0.796864 v 3.148585 q -0.672548,0.291536 -1.345096,0.524764 -0.672548,0.213793 -1.414075,0.349844 -0.724282,0.136049 -1.569278,0.194357 -0.827752,0.07774 -1.845195,0.07774 -2.828151,0 -4.897528,-1.049528 -2.069378,-1.049528 -3.431718,-2.973664 -1.345097,-1.924135 -2.0004,-4.625699 -0.655303,-2.701565 -0.655303,-5.9862 0,-3.226328 0.741528,-5.908456 0.758772,-2.682129 2.207336,-4.606264 1.46581,-1.924136 3.621412,-2.9930995 2.155602,-1.0689641 4.949262,-1.0689641 1.86244,0 3.552432,0.4275856 1.689992,0.4275857 3.052332,1.243886 l -1.345096,3.03197 Q 55.50528,12.870771 54.229163,12.423751 52.953047,11.97673 51.332034,11.97673 Z"
       style="font-style:normal;font-variant:normal;font-weight:normal;font-stretch:normal;font-size:37.4938px;line-height:125%;font-family:'Droid Sans';-inkscape-font-specification:'Droid Sans, Normal';font-variant-ligatures:normal;font-variant-caps:normal;font-variant-numeric:normal;font-variant-east-asian:normal;letter-spacing:0px;word-spacing:0px;fill:#ffffff;fill-opacity:1;stroke:none;stroke-width:0.937345px;stroke-linecap:butt;stroke-linejoin:miter;stroke-opacity:1"
       id="path878" /></g><g
     id="g22" /><g
     id="g24" /><g
     id="g26" /><g
     id="g28" /><g
     id="g30" /><g
     id="g32" /><g
     id="g34" /><g
     id="g36" /><g
     id="g38" /><g
     id="g40" /><g
     id="g42" /><g
     id="g44" /><g
     id="g46" /><g
     id="g48" /><g
     id="g50" /><g
     inkscape:groupmode="layer"
     id="layer1"
     inkscape:label="white"
     style="display:inline" /></svg>
